<svg width="180" height="33" viewBox="0 0 180 33" fill="none" xmlns="http://www.w3.org/2000/svg">
<g clip-path="url(#clip0_22_145)">
<circle cx="16.5" cy="16.5" r="16.5" fill="#BEE2FD"/>
<path d="M14.0015 14.314C14.2722 14.202 14.5522 14.076 14.8415 13.936C15.1402 13.7867 15.4295 13.628 15.7095 13.46C15.9895 13.2827 16.2555 13.1007 16.5075 12.914C16.7688 12.718 17.0022 12.5127 17.2075 12.298H18.6635V22H16.5775V15.014C16.2975 15.2007 15.9848 15.3733 15.6395 15.532C15.2942 15.6813 14.9582 15.812 14.6315 15.924L14.0015 14.314Z" fill="#022959"/>
</g>
<g clip-path="url(#clip1_22_145)">
<circle cx="65.5" cy="16.5" r="16" stroke="white"/>
<path d="M69.4655 14.846C69.4655 15.2007 69.3955 15.5413 69.2555 15.868C69.1155 16.1947 68.9335 16.512 68.7095 16.82C68.4855 17.1187 68.2335 17.408 67.9535 17.688C67.6735 17.968 67.3982 18.234 67.1275 18.486C66.9875 18.6167 66.8335 18.766 66.6655 18.934C66.5068 19.0927 66.3528 19.256 66.2035 19.424C66.0542 19.592 65.9188 19.7507 65.7975 19.9C65.6855 20.04 65.6155 20.1567 65.5875 20.25H69.7595V22H63.2915C63.2728 21.8973 63.2635 21.7667 63.2635 21.608C63.2635 21.4493 63.2635 21.3373 63.2635 21.272C63.2635 20.824 63.3335 20.4133 63.4735 20.04C63.6228 19.6667 63.8142 19.3213 64.0475 19.004C64.2808 18.6773 64.5422 18.374 64.8315 18.094C65.1302 17.814 65.4242 17.534 65.7135 17.254C65.9375 17.0393 66.1475 16.8387 66.3435 16.652C66.5395 16.456 66.7122 16.2693 66.8615 16.092C67.0108 15.9053 67.1275 15.7233 67.2115 15.546C67.2955 15.3593 67.3375 15.1727 67.3375 14.986C67.3375 14.5753 67.2208 14.286 66.9875 14.118C66.7542 13.95 66.4648 13.866 66.1195 13.866C65.8675 13.866 65.6295 13.908 65.4055 13.992C65.1908 14.0667 64.9902 14.16 64.8035 14.272C64.6262 14.3747 64.4722 14.482 64.3415 14.594C64.2108 14.6967 64.1128 14.7807 64.0475 14.846L63.0115 13.39C63.4222 13.0073 63.8982 12.6947 64.4395 12.452C64.9902 12.2 65.5782 12.074 66.2035 12.074C66.7728 12.074 67.2628 12.1393 67.6735 12.27C68.0842 12.4007 68.4202 12.5873 68.6815 12.83C68.9522 13.0633 69.1482 13.3527 69.2695 13.698C69.4002 14.034 69.4655 14.4167 69.4655 14.846Z" fill="white"/>
</g>
<g clip-path="url(#clip2_22_145)">
<circle cx="114.5" cy="16.5" r="16" stroke="white"/>
<path d="M114.713 22.21C114.461 22.21 114.195 22.1913 113.915 22.154C113.635 22.126 113.365 22.084 113.103 22.028C112.842 21.972 112.604 21.9113 112.389 21.846C112.175 21.7807 112.007 21.72 111.885 21.664L112.291 19.928C112.534 20.0307 112.842 20.1427 113.215 20.264C113.598 20.376 114.069 20.432 114.629 20.432C115.273 20.432 115.745 20.3107 116.043 20.068C116.342 19.8253 116.491 19.4987 116.491 19.088C116.491 18.836 116.435 18.626 116.323 18.458C116.221 18.2807 116.076 18.1407 115.889 18.038C115.703 17.926 115.479 17.8513 115.217 17.814C114.965 17.7673 114.695 17.744 114.405 17.744H113.593V16.064H114.517C114.723 16.064 114.919 16.0453 115.105 16.008C115.301 15.9707 115.474 15.91 115.623 15.826C115.773 15.7327 115.889 15.6113 115.973 15.462C116.067 15.3033 116.113 15.1073 116.113 14.874C116.113 14.6967 116.076 14.5427 116.001 14.412C115.927 14.2813 115.829 14.174 115.707 14.09C115.595 14.006 115.46 13.9453 115.301 13.908C115.152 13.8613 114.998 13.838 114.839 13.838C114.438 13.838 114.065 13.8987 113.719 14.02C113.383 14.1413 113.075 14.2907 112.795 14.468L112.053 12.942C112.203 12.8487 112.375 12.7507 112.571 12.648C112.777 12.5453 113.001 12.452 113.243 12.368C113.486 12.284 113.743 12.214 114.013 12.158C114.293 12.102 114.587 12.074 114.895 12.074C115.465 12.074 115.955 12.144 116.365 12.284C116.785 12.4147 117.131 12.606 117.401 12.858C117.672 13.1007 117.873 13.39 118.003 13.726C118.134 14.0527 118.199 14.412 118.199 14.804C118.199 15.1867 118.092 15.56 117.877 15.924C117.663 16.2787 117.373 16.5493 117.009 16.736C117.513 16.9413 117.901 17.2493 118.171 17.66C118.451 18.0613 118.591 18.5467 118.591 19.116C118.591 19.564 118.517 19.9793 118.367 20.362C118.218 20.7353 117.985 21.062 117.667 21.342C117.35 21.6127 116.944 21.8273 116.449 21.986C115.964 22.1353 115.385 22.21 114.713 22.21Z" fill="white"/>
</g>
<g clip-path="url(#clip3_22_145)">
<circle cx="163.5" cy="16.5" r="16" stroke="white"/>
<path d="M164.987 14.846C164.623 15.322 164.236 15.84 163.825 16.4C163.415 16.96 163.069 17.534 162.789 18.122H164.987V14.846ZM167.031 12.298V18.122H168.067V19.83H167.031V22H164.987V19.83H160.801V18.304C161.007 17.8933 161.263 17.4313 161.571 16.918C161.879 16.3953 162.22 15.8633 162.593 15.322C162.976 14.7713 163.377 14.2347 163.797 13.712C164.217 13.1893 164.637 12.718 165.057 12.298H167.031Z" fill="white"/>
</g>
<defs>
<clipPath id="clip0_22_145">
<rect width="33" height="33" fill="white"/>
</clipPath>
<clipPath id="clip1_22_145">
<rect width="33" height="33" fill="white" transform="translate(49)"/>
</clipPath>
<clipPath id="clip2_22_145">
<rect width="33" height="33" fill="white" transform="translate(98)"/>
</clipPath>
<clipPath id="clip3_22_145">
<rect width="33" height="33" fill="white" transform="translate(147)"/>
</clipPath>
</defs>
</svg>
